<svg width="25" height="23" viewBox="0 0 25 23" fill="none" xmlns="http://www.w3.org/2000/svg">
<path d="M22.089 12.2577L12.5106 22L2.93227 12.2577M2.93227 12.2577C2.30049 11.6263 1.80284 10.8675 1.47067 10.0289C1.1385 9.19028 0.979002 8.29015 1.00221 7.38515C1.02543 6.48014 1.23085 5.58988 1.60555 4.77041C1.98025 3.95095 2.51611 3.22004 3.17938 2.6237C3.84265 2.02737 4.61897 1.57853 5.45944 1.30545C6.29992 1.03237 7.18635 0.940968 8.06292 1.037C8.93948 1.13303 9.78719 1.41441 10.5527 1.86342C11.3181 2.31243 11.9848 2.91935 12.5106 3.64596C13.0388 2.92463 13.7062 2.32301 14.4711 1.87876C15.2361 1.43452 16.0821 1.1572 16.9562 1.06417C17.8303 0.971143 18.7137 1.0644 19.5511 1.33812C20.3885 1.61184 21.1619 2.06011 21.8228 2.65489C22.4837 3.24968 23.018 3.97816 23.3922 4.79475C23.7664 5.61134 23.9724 6.49846 23.9974 7.40059C24.0224 8.30272 23.8658 9.20043 23.5374 10.0375C23.2091 10.8747 22.716 11.6332 22.089 12.2656" stroke="red" stroke-width="2" stroke-linecap="round" stroke-linejoin="round"/>
</svg>
