<svg width="18" height="18" viewBox="0 0 18 18" fill="none" xmlns="http://www.w3.org/2000/svg">
<path d="M9.46565 15.4953C9.17417 15.3417 8.82573 15.3416 8.5341 15.4949L4.62155 17.552C3.88791 17.9377 3.03045 17.3147 3.17059 16.4978L3.91802 12.1406C3.97371 11.8159 3.86596 11.4847 3.62993 11.2549L0.460883 8.17017C-0.133392 7.59171 0.194213 6.58289 1.01497 6.46394L5.38645 5.83039C5.71231 5.78317 5.99404 5.57856 6.13976 5.28329L8.09625 1.31897C8.46306 0.575714 9.52291 0.575715 9.88973 1.31897L11.8462 5.28329C11.9919 5.57856 12.2737 5.78317 12.5995 5.83039L16.971 6.46394C17.7918 6.58289 18.1194 7.59171 17.5251 8.17018L14.356 11.2549C14.12 11.4847 14.0123 11.8159 14.068 12.1406L14.815 16.4954C14.9552 17.3128 14.0969 17.9358 13.3632 17.5492L9.46565 15.4953Z" fill="#F4C400"/>
</svg>
